# xmcd
#
# Track frame offsets:
#	150
#	13987
#	27227
#	40897
#	55420
#	70677
#	83232
#	98007
#	113797
#	129162
#	143702
#	159107
#	174092
#	188615
#	202880
#	218087
#	233085
#	248130
#	260252
#	273717
#	288395
#	300992
#	314777
#	329067
#
# Disc length: 4555 seconds
#
# Revision: 1
# Processed by: cddbd v1.5.1PL0 Copyright (c) Steve Scherf et al.
# Submitted via: audiograbber 1.81.03
#
DISCID=4b11c918
DTITLE=Sonny Boy Williamson - Volumen 2, 1938-1939
DYEAR=1900
DGENRE=
TTITLE0=My baby I ´ve been your slave
TTITLE1=Whiskey Headed Blues
TTITLE2=Lord, Oh Lord blues
TTITLE3=You give an account
TTITLE4=Shannon Street Blues
TTITLE5=You´ve been Foolin´ Round Town
TTITLE6=Deep down in the ground
TTITLE7=Number Five Blues
TTITLE8=Christmas Morning Blues
TTITLE9=Susie Q
TTITLE10=Blue Bird Blues
TTITLE11=Little Girl Blues
TTITLE12=Low down Ways
TTITLE13=Goodbye Red
TTITLE14=The Right kind of life
TTITLE15=Insurance Man Blues
TTITLE16=Rainy Day Blues
TTITLE17=Bad Luck Blues
TTITLE18=My little baby
TTITLE19=Doggin´ my love around
TTITLE20=Little low woman blues
TTITLE21=Good for nothing blues
TTITLE22=Sugar Mama Blues #2
TTITLE23=Good Gravy
EXTD=
EXTT0=
EXTT1=
EXTT2=
EXTT3=
EXTT4=
EXTT5=
EXTT6=
EXTT7=
EXTT8=
EXTT9=
EXTT10=
EXTT11=
EXTT12=
EXTT13=
EXTT14=
EXTT15=
EXTT16=
EXTT17=
EXTT18=
EXTT19=
EXTT20=
EXTT21=
EXTT22=
EXTT23=
PLAYORDER=
